<svg id="Layer_1" data-name="Layer 1" xmlns="http://www.w3.org/2000/svg" viewBox="0 0 32 32"><defs><style>.cls-1{fill:#fff;}</style></defs><title>Icons</title><path class="cls-1" d="M20.79,22.16v-.58a3.89,3.89,0,0,0,.48-.43,8.54,8.54,0,0,0,2.17-4.79,4.26,4.26,0,0,0,2.74-1.63c.91-1.29,1-3.15.23-5.48a.57.57,0,0,0-.25-.32l-.35-.24a8.52,8.52,0,0,0-2-5.75C22.08,1,19.48.07,16,.06S10,1,8.29,2.92a8.57,8.57,0,0,0-2,5.75l-.34.23a.59.59,0,0,0-.25.33c-.77,2.34-.68,4.19.23,5.48a4.23,4.23,0,0,0,2.73,1.64,8.57,8.57,0,0,0,2.19,4.8,4.79,4.79,0,0,0,.47.43v.58C8.87,22.63-.12,24.89,0,31.31a.63.63,0,0,0,.63.63H31.4a.63.63,0,0,0,.63-.63C32.19,24.89,23.21,22.63,20.79,22.16ZM8.24,15a2.77,2.77,0,0,1-1.33-1h0c-.63-.92-.69-2.32-.13-4.15l.46-.31a.63.63,0,0,0,.28-.59A7.5,7.5,0,0,1,9.26,3.75C10.69,2.14,13,1.33,16,1.32s5.35.82,6.8,2.43a7.45,7.45,0,0,1,1.71,5.18.63.63,0,0,0,.28.59l.46.31c.56,1.83.52,3.23-.13,4.15a2.73,2.73,0,0,1-1.34,1,4.2,4.2,0,0,0,1-3.15,2.94,2.94,0,0,0-1-1.76c-.27-6.3-4.68-7-6.58-7A8.11,8.11,0,0,0,16,3.13,8,8,0,0,0,14.83,3c-1.89,0-6.3.69-6.59,7a2.94,2.94,0,0,0-1,1.76A4.18,4.18,0,0,0,8.24,15ZM22.57,9.78A13,13,0,0,1,15,7.89a.62.62,0,0,0-.81.08C13,9.33,10.67,9.64,9.56,9.71c.34-4.45,3-5.42,5.3-5.42a6.56,6.56,0,0,1,1.08.09.53.53,0,0,0,.25,0,6.56,6.56,0,0,1,1.08-.09c2.25,0,4.95,1,5.27,5.49ZM9.78,15.06h0a.67.67,0,0,0-.16-.42A3.55,3.55,0,0,1,8.5,12,1.64,1.64,0,0,1,9.07,11c.83,0,3.78-.15,5.67-1.79a14,14,0,0,0,7,1.89A8.1,8.1,0,0,0,23,11a1.72,1.72,0,0,1,.57,1,3.56,3.56,0,0,1-1.15,2.63.61.61,0,0,0-.16.42v.33l-3.66,2a1.82,1.82,0,1,0,.07,2.57,1.87,1.87,0,0,0,.49-1.25v-.17L22.07,17a6.89,6.89,0,0,1-1.69,3.32,5.61,5.61,0,0,1-4.17,1.57h-.32a5.63,5.63,0,0,1-4.16-1.56A8,8,0,0,1,9.78,15.06Zm8.14,3.62a.56.56,0,1,1-.56-.56A.56.56,0,0,1,17.92,18.68Zm-2.52,12H1.32c.5-4.73,7.55-6.7,10-7.21v1.12c0,1.43,1.74,2.52,4.13,2.71Zm-2.87-6.09h0V22.38a7.59,7.59,0,0,0,3.35.71h.31a7.55,7.55,0,0,0,3.34-.71v2.17c0,.6-1.36,1.47-3.5,1.47S12.53,25.15,12.53,24.55Zm4.13,6.11V27.25c2.4-.16,4.13-1.26,4.13-2.7v-1.1c2.43.5,9.44,2.48,10,7.21Z"/></svg>