<svg id="Layer_1" data-name="Layer 1" xmlns="http://www.w3.org/2000/svg" viewBox="0 0 32 32"><defs><style>.cls-1{fill:#fff;}</style></defs><title>Icons</title><path class="cls-1" d="M31.29,20.83a.59.59,0,0,0-.05-.47l-1.7-3.1,2.31-2.68a.58.58,0,0,0,.13-.44.6.6,0,0,0-.22-.41L29,11.6l1-3.39a.59.59,0,0,0,0-.47.56.56,0,0,0-.37-.27l-3.43-.81-.44-3.51a.58.58,0,0,0-.24-.4.53.53,0,0,0-.44-.1l-3.47.66-1.82-3A.6.6,0,0,0,19.34,0a.59.59,0,0,0-.46.1L16,2.13,13.1.1a.57.57,0,0,0-.82.18l-1.83,3L7,2.65a.57.57,0,0,0-.68.5L5.87,6.66l-3.43.81a.56.56,0,0,0-.37.27.59.59,0,0,0,0,.47L3,11.6.23,13.73a.61.61,0,0,0-.23.41.63.63,0,0,0,.14.44l2.31,2.68-1.7,3.1a.58.58,0,0,0,.26.82l3.19,1.5-.3,3.53a.56.56,0,0,0,.15.44.55.55,0,0,0,.41.19L8,26.91l1.15,3.35a.58.58,0,0,0,.31.34.57.57,0,0,0,.46,0l3.25-1.38,2.41,2.58a.59.59,0,0,0,.85,0l2.41-2.58,3.24,1.38a.57.57,0,0,0,.46,0,.6.6,0,0,0,.32-.34L24,26.91l3.52-.07a.55.55,0,0,0,.42-.19.59.59,0,0,0,.15-.44l-.3-3.53L31,21.18A.63.63,0,0,0,31.29,20.83Zm-4.36,1a.6.6,0,0,0-.33.58l.28,3.31-3.31.07a.57.57,0,0,0-.53.39L22,29.28,18.9,28a.57.57,0,0,0-.64.14L16,30.56l-2.26-2.43a.59.59,0,0,0-.64-.14L10,29.28,9,26.14a.57.57,0,0,0-.54-.39l-3.3-.07.28-3.31a.61.61,0,0,0-.33-.58l-3-1.41,1.6-2.91a.59.59,0,0,0-.07-.67L1.43,14.29l2.63-2a.59.59,0,0,0,.21-.63l-1-3.18,3.22-.76A.6.6,0,0,0,7,7.21l.41-3.3,3.25.63a.58.58,0,0,0,.61-.27L13,1.42l2.71,1.9a.59.59,0,0,0,.67,0L19,1.42l1.71,2.85a.57.57,0,0,0,.61.27l3.24-.63L25,7.21a.59.59,0,0,0,.44.5l3.22.76-1,3.18a.57.57,0,0,0,.21.63l2.63,2L28.4,16.8a.59.59,0,0,0-.07.67l1.6,2.91Z"/><path class="cls-1" d="M16,6.94A9.06,9.06,0,1,0,25,16,9,9,0,0,0,16,6.94ZM16,24a8,8,0,1,1,8-8A8,8,0,0,1,16,24Z"/><path class="cls-1" d="M14.58,18.43a.58.58,0,0,0,.81,0l4-4a.58.58,0,0,0,0-.81h0a.59.59,0,0,0-.4-.16h0a.56.56,0,0,0-.4.17L15,17.22l-1.61-1.63a.59.59,0,0,0-.4-.16.57.57,0,0,0-.4,1Z"/></svg>