<svg id="Layer_1" data-name="Layer 1" xmlns="http://www.w3.org/2000/svg" viewBox="0 0 32 32"><defs><style>.cls-1{fill:#fff;}</style></defs><title>Icons</title><path class="cls-1" d="M31,14.5c1.49-2.81,1.37-8.17-.46-11A13.37,13.37,0,0,0,27.33.17a.65.65,0,0,0-.77,0C24.4,2,22,6.69,19.81,10.22a42,42,0,0,0-4.06,10.63C15.36,22.5,14.47,23.3,13,23.3h0a5.84,5.84,0,0,1-2.15-.48.6.6,0,0,0-.49,0l-1.1.39a1.89,1.89,0,0,0-.06-.85,2.29,2.29,0,0,0-2.29-1.55,2.74,2.74,0,0,0-.85.13A2.86,2.86,0,0,0,4.53,22a2.11,2.11,0,0,0-.32,1.79,2,2,0,0,0,.64,1c-1.35.48-2.55.93-3.11,1.16a2.59,2.59,0,0,0,.52,5c.35.12,3.37,1.05,9.86,1.05.81,0,1.66,0,2.52,0,5-.18,5.7-2.74,6.45-5.45.12-.4.23-.81.36-1.23a22.21,22.21,0,0,1,4-6.84l0,12.87a.64.64,0,0,0,.64.64h2.46a.64.64,0,0,0,.46-.19.68.68,0,0,0,.19-.47c0-.06-.13-7.2,0-9.78A33.49,33.49,0,0,1,31,14.5Zm-3,7c-.11,2.15,0,7.49,0,9.21H26.8l0-13.73a.64.64,0,0,0-.38-.58.63.63,0,0,0-.69.1c-.18.16-4.4,5-5.48,8.44-.14.44-.25.87-.37,1.28-.76,2.72-1.22,4.36-5.26,4.5-.84,0-1.67,0-2.47,0-6.53,0-9.44-1-9.47-1l-.06,0s-1.3-.33-1.3-1.25a1.48,1.48,0,0,1,.93-1.33c.73-.29,2.63-1,4.46-1.64l.48.19A16.15,16.15,0,0,0,13,27a7.53,7.53,0,0,0,3-.57A5.4,5.4,0,0,0,19,23,69.46,69.46,0,0,1,23.7,11.71c1.63-3,3.95-6.88,5.4-8,.11.16.23.32.34.49,1.58,2.42,1.67,7.27.39,9.68v0A33.67,33.67,0,0,0,28,21.45ZM10.58,24.09a6.78,6.78,0,0,0,2.44.5h0c2,0,3.45-1.22,4-3.44,1-4.41,5.67-15.89,10-19.62a11.86,11.86,0,0,1,1.29,1.22c-1.69,1.58-4,5.31-5.66,8.26a73.37,73.37,0,0,0-4.79,11.56,4.11,4.11,0,0,1-2.3,2.66c-2.28,1-5.46.13-7-.41Zm-5-1.35a1.65,1.65,0,0,1,.86-.6,2.07,2.07,0,0,1,.49-.07A1,1,0,0,1,8,22.69c.14.5-.32,1.09-1,1.3a2,2,0,0,1-.49.07,1,1,0,0,1-1-.62A.83.83,0,0,1,5.59,22.74Z"/></svg>