<svg id="Layer_1" data-name="Layer 1" xmlns="http://www.w3.org/2000/svg" viewBox="0 0 32 32"><defs><style>.cls-1{fill:#fff;}</style></defs><title>Icons</title><path class="cls-1" d="M7.47,25.6a3.2,3.2,0,1,0,3.2,3.2A3.2,3.2,0,0,0,7.47,25.6Zm0,5.33A2.13,2.13,0,1,1,9.6,28.8,2.13,2.13,0,0,1,7.47,30.93Z"/><path class="cls-1" d="M25.6,25.6a3.2,3.2,0,1,0,3.2,3.2A3.21,3.21,0,0,0,25.6,25.6Zm0,5.33a2.13,2.13,0,1,1,2.13-2.13A2.13,2.13,0,0,1,25.6,30.93Z"/><path class="cls-1" d="M31.92,22.64l-4.8-7.46a.55.55,0,0,0-.45-.25H20.8a.54.54,0,0,0-.53.54V28.8a.53.53,0,0,0,.53.53h2.13V28.27h-1.6V16h5.05l4.55,7.09v5.18H28.27v1.06h3.2A.53.53,0,0,0,32,28.8V22.93A.6.6,0,0,0,31.92,22.64Z"/><path class="cls-1" d="M23.47,21.87V18.13h4.26V17.07h-4.8a.53.53,0,0,0-.53.53v4.8a.53.53,0,0,0,.53.53h8V21.87Z"/><path class="cls-1" d="M20.8,11.2H.53a.53.53,0,0,0-.53.53V28.8a.53.53,0,0,0,.53.53H4.8V28.27H1.07v-16h19.2v16H10.13v1.06H20.8a.53.53,0,0,0,.53-.53V11.73A.53.53,0,0,0,20.8,11.2Z"/><rect class="cls-1" x="2.13" y="13.33" width="18.67" height="1.07" rx="0.53" ry="0.53"/><rect class="cls-1" x="5.47" y="4.94" width="7.89" height="1.07" rx="0.53" ry="0.53" transform="translate(3.94 14.89) rotate(-90)"/><rect class="cls-1" x="11.46" y="4.94" width="7.89" height="1.07" rx="0.53" ry="0.53" transform="translate(9.93 20.87) rotate(-90)"/><rect class="cls-1" x="8.89" y="1.53" width="3.79" height="1.07" rx="0.53" ry="0.53" transform="translate(21.56 4.13) rotate(-180)"/><rect class="cls-1" x="8.89" y="4.81" width="3.79" height="1.07" rx="0.53" ry="0.53" transform="translate(21.56 10.69) rotate(180)"/><rect class="cls-1" y="1.53" width="6.25" height="1.07" rx="0.53" ry="0.53" transform="translate(6.25 4.13) rotate(-180)"/><rect class="cls-1" y="4.81" width="6.25" height="1.07" rx="0.53" ry="0.53" transform="translate(6.25 10.69) rotate(180)"/><rect class="cls-1" y="8.35" width="6.25" height="1.07" rx="0.53" ry="0.53" transform="translate(6.25 17.77) rotate(180)"/><rect class="cls-1" x="18.74" y="4.94" width="7.89" height="1.07" rx="0.53" ry="0.53" transform="translate(17.21 28.16) rotate(-90)"/><rect class="cls-1" x="22.15" y="1.53" width="3.79" height="1.07" rx="0.53" ry="0.53" transform="translate(48.1 4.13) rotate(-180)"/><rect class="cls-1" x="22.15" y="4.81" width="3.79" height="1.07" rx="0.53" ry="0.53" transform="translate(48.1 10.69) rotate(180)"/><rect class="cls-1" x="22.15" y="8.35" width="3.79" height="1.07" rx="0.53" ry="0.53" transform="translate(48.1 17.77) rotate(180)"/><rect class="cls-1" x="24.8" y="4.94" width="7.89" height="1.07" rx="0.53" ry="0.53" transform="translate(23.27 34.21) rotate(-90)"/><rect class="cls-1" x="28.21" y="1.53" width="3.79" height="1.07" rx="0.53" ry="0.53" transform="translate(60.21 4.13) rotate(-180)"/><rect class="cls-1" x="28.21" y="4.81" width="3.79" height="1.07" rx="0.53" ry="0.53" transform="translate(60.21 10.69) rotate(180)"/><rect class="cls-1" x="28.21" y="8.35" width="3.79" height="1.07" rx="0.53" ry="0.53" transform="translate(60.21 17.77) rotate(180)"/><rect class="cls-1" x="14.87" y="1.53" width="4.72" height="1.07" rx="0.53" ry="0.53" transform="translate(34.46 4.13) rotate(180)"/><rect class="cls-1" x="14.87" y="4.81" width="4.72" height="1.07" rx="0.53" ry="0.53" transform="translate(34.46 10.69) rotate(180)"/><rect class="cls-1" x="14.91" y="6.88" width="5.24" height="1.07" rx="0.53" ry="0.53" transform="translate(24.68 25.05) rotate(-135)"/><rect class="cls-1" x="16.89" y="3.18" width="4.33" height="1.07" rx="0.53" ry="0.53" transform="translate(15.34 22.77) rotate(-90)"/><rect class="cls-1" x="0.53" y="26.13" width="3.2" height="1.07" rx="0.53" ry="0.53"/><rect class="cls-1" x="29.4" y="26.13" width="2.25" height="1.07" rx="0.53" ry="0.53"/><rect class="cls-1" x="11.2" y="26.13" width="9.74" height="1.07" rx="0.53" ry="0.53"/></svg>