<?xml version="1.0" encoding="utf-8"?>
<!-- Generator: Adobe Illustrator 22.1.0, SVG Export Plug-In . SVG Version: 6.00 Build 0)  -->
<svg version="1.1" id="Layer_1" xmlns="http://www.w3.org/2000/svg" xmlns:xlink="http://www.w3.org/1999/xlink" x="0px" y="0px"
	 viewBox="0 0 32 32" style="enable-background:new 0 0 32 32;" xml:space="preserve">
<style type="text/css">
	.st0{fill:#F9F9F9;}
</style>
<title>Icons</title>
<path class="st0" d="M15.9,31.9H16l0.2,0l0,0l0,0l13.9-6.7c0.2-0.1,0.4-0.4,0.4-0.6V7.6c0-0.1,0-0.2-0.1-0.3C30.3,7.1,30.2,7,30,6.9
	L16.3,0.2c-0.2-0.1-0.4-0.1-0.6,0L1.8,6.9C1.6,7,1.4,7.3,1.4,7.5v16.9c0,0.3,0.2,0.5,0.4,0.6l13.9,6.7h0.1L15.9,31.9L15.9,31.9z
	 M29.2,24l-12.6,6.1V14.7l6-2.9V16c-0.1,0.4,0.1,0.7,0.5,0.8c0.4,0.1,0.7-0.1,0.8-0.5c0-0.1,0-0.2,0-0.3v-4.9l5.2-2.5L29.2,24z
	 M16,1.6L16,1.6l12.3,6l-4.7,2.3l0,0l-12.3-6L16,1.6z M15.3,30.1L2.8,24V8.6L3,8.7l12.3,6L15.3,30.1z M3.6,7.6l6-2.9h0.1l12.3,6
	l-6,2.9h-0.1L3.6,7.6z"/>
</svg>
